<svg xmlns="http://www.w3.org/2000/svg" width="1200" height="630" viewBox="0 0 1200 630">
  <defs>
    <linearGradient id="bg" x1="0" y1="0" x2="1" y2="1">
      <stop offset="0%" stop-color="#111827"/>
      <stop offset="100%" stop-color="#1f2937"/>
    </linearGradient>
  </defs>
  <rect width="1200" height="630" fill="url(#bg)"/>
  <g transform="translate(80 120)">
    <rect x="0" y="0" width="120" height="120" rx="24" fill="#E60023"/>
    <path d="M60 28c-19.9 0-36 16.1-36 36 0 14.5 8.6 26.9 21 32.4-1-7.3-.2-10.1 3.3-18.5.3-.7-.2-1.5-1-1.7-8-3.3-11.7-12.3-11.7-20.5 0-13.8 11.2-25 25-25s25 11.2 25 25c0 15.3-8.2 26-19.4 26-4.1 0-8-2.2-9.3-4.8 0 0-2.2 8.6-2.7 10.4-1.1 4.1-4.1 9-4.3 9.5 2.4.7 4.9 1.1 7.5 1.1 19.9 0 36-16.1 36-36S79.9 28 60 28z" fill="#fff"/>
    <text x="160" y="56" fill="#F9FAFB" font-family="Inter,Segoe UI,Arial" font-weight="700" font-size="48">Pinterest Downloader</text>
    <text x="160" y="110" fill="#D1D5DB" font-family="Inter,Segoe UI,Arial" font-size="28">Videos • Images</text>
  </g>
  <text x="80" y="560" fill="#9CA3AF" font-family="Inter,Segoe UI,Arial" font-size="20">Paste a link to start • Free • Fast</text>
</svg>