<svg xmlns="http://www.w3.org/2000/svg" width="1200" height="630" viewBox="0 0 1200 630">
  <defs>
    <linearGradient id="bg" x1="0" y1="0" x2="1" y2="1">
      <stop offset="0%" stop-color="#111827"/>
      <stop offset="100%" stop-color="#1f2937"/>
    </linearGradient>
  </defs>
  <rect width="1200" height="630" fill="url(#bg)"/>
  <g transform="translate(80 120)">
    <rect x="0" y="0" width="120" height="120" rx="24" fill="#FFFC00"/>
    <path d="M60 30c-14 0-24 10.3-24 23 0 7.9 4.7 18.7 9.6 24.9-6.4 4.3-13.8 6.6-19.6 7.1 2.7 7.1 11.6 10.3 19.7 10.9 0 7.6 6.3 14.1 14.3 14.1s14.3-6.5 14.3-14.1c8-0.6 17-3.8 19.7-10.9-5.7-0.5-13.2-2.8-19.6-7.1C79.3 71.7 84 60.9 84 53c0-12.7-10-23-24-23z" fill="#000"/>
    <text x="160" y="56" fill="#F9FAFB" font-family="Inter,Segoe UI,Arial" font-weight="700" font-size="48">Snapchat Downloader</text>
    <text x="160" y="110" fill="#D1D5DB" font-family="Inter,Segoe UI,Arial" font-size="28">Stories • Videos</text>
  </g>
  <text x="80" y="560" fill="#9CA3AF" font-family="Inter,Segoe UI,Arial" font-size="20">Paste a link to start • Free • Fast</text>
</svg>