<svg xmlns="http://www.w3.org/2000/svg" width="1200" height="630" viewBox="0 0 1200 630">
  <defs>
    <linearGradient id="bg" x1="0" y1="0" x2="1" y2="1">
      <stop offset="0%" stop-color="#111827"/>
      <stop offset="100%" stop-color="#1f2937"/>
    </linearGradient>
  </defs>
  <rect width="1200" height="630" fill="url(#bg)"/>
  <g transform="translate(80 120)">
    <rect x="0" y="0" width="120" height="120" rx="24" fill="#000"/>
    <path d="M88 48c-12.7 0-24-7.2-29.3-18.4V92c0 16.6-13.4 30-30 30S-2 108.6-2 92s13.4-30 30-30c3 0 6 .5 8.7 1.5V52c-2.7-.7-5.6-1-8.7-1-20.7 0-37.5 16.8-37.5 37.5S9.3 126 30 126s37.5-16.8 37.5-37.5V56.7c8.4 6.2 18.7 9.8 30 9.8V48z" fill="#00f2ea"/>
    <path d="M88 42c-12.7 0-24-7.2-29.3-18.4V86c0 16.6-13.4 30-30 30S-2 102.6-2 86s13.4-30 30-30c3 0 6 .5 8.7 1.5V46c-2.7-.7-5.6-1-8.7-1-20.7 0-37.5 16.8-37.5 37.5S9.3 120 30 120s37.5-16.8 37.5-37.5V50.7c8.4 6.2 18.7 9.8 30 9.8V42z" fill="#ff0050" opacity=".8"/>
    <text x="160" y="56" fill="#F9FAFB" font-family="Inter,Segoe UI,Arial" font-weight="700" font-size="48">TikTok Downloader</text>
    <text x="160" y="110" fill="#D1D5DB" font-family="Inter,Segoe UI,Arial" font-size="28">No Watermark • MP4</text>
  </g>
  <text x="80" y="560" fill="#9CA3AF" font-family="Inter,Segoe UI,Arial" font-size="20">Paste a link to start • Free • Fast</text>
</svg>